PathFileType	3	(X/Y/Z)	D:\Jess\Healthy\Labelled\HA16\20250507\SRRun02.trc
DataRate	CameraRate	NumFrames	NumMarkers	Units	OrigDataRate	OrigDataStartFrame	OrigNumFrames
250.0	250.0	4	37	mm	250.0	36875	2501
Frame#	Time	C7			T10			CLAV			LSHO			RSHO			LASIS			RASIS			LPSIS			RPSIS			LILCR			RILCR			LGTR			LTHI			LLTHI			LLEP			LMEP			LPSH			LLSH			LDSH			LLMAL			LMMAL			LTOE			L5TH			LHEE			RGTR			RTHI			RLTHI			RLEP			RMEP			RPSH			RLSH			RDSH			RLMAL			RMMAL			RTOE			R5TH			RHEE			
		X1	Y1	Z1	X2	Y2	Z2	X3	Y3	Z3	X4	Y4	Z4	X5	Y5	Z5	X6	Y6	Z6	X7	Y7	Z7	X8	Y8	Z8	X9	Y9	Z9	X10	Y10	Z10	X11	Y11	Z11	X12	Y12	Z12	X13	Y13	Z13	X14	Y14	Z14	X15	Y15	Z15	X16	Y16	Z16	X17	Y17	Z17	X18	Y18	Z18	X19	Y19	Z19	X20	Y20	Z20	X21	Y21	Z21	X22	Y22	Z22	X23	Y23	Z23	X24	Y24	Z24	X25	Y25	Z25	X26	Y26	Z26	X27	Y27	Z27	X28	Y28	Z28	X29	Y29	Z29	X30	Y30	Z30	X31	Y31	Z31	X32	Y32	Z32	X33	Y33	Z33	X34	Y34	Z34	X35	Y35	Z35	X36	Y36	Z36	X37	Y37	Z37	

1876	147.496	1065.739014330239	1393.623983594186	-290.2916795123141	1004.195193634965	1164.285465332173	-266.2029775630973	1187.688915672592	1312.916290637963	-347.5390266361638	1184.710044698301	1355.418638073569	-201.0881904615619	1074.981863265914	1374.311819026549	-438.7101929084291	1155.468784170732	947.814382980416	-431.433817016578	1174.340002661885	924.9837901414687	-217.4250055600535	986.7876585107372	994.513763806211	-331.200256851317	994.9226841218519	991.6510358699982	-285.7773709939395	1083.753252725596	1034.784807503034	-461.1316821371527	1137.489884713431	1004.403552298079	-185.5792005403613	1091.857911267145	881.1328604641946	-499.6888107572937	1219.012206739883	741.7268374226915	-421.1887379216845	1151.474791063669	633.4559431014841	-469.1806469236439	1194.481015568494	499.4953153873228	-448.7218501624109	nan	nan	nan	1265.527729139438	431.1025522496848	-392.829193784956	1218.248068342375	314.9066045423099	-463.2439904650649	1297.153340594575	246.5059227739258	-395.0535517016723	1282.570716714766	127.2485931213936	-429.995529220532	nan	nan	nan	1416.121473271074	143.0332035442481	-409.5101027011061	1401.223688831432	94.60904876719034	-443.568629681964	1228.333803850046	76.93234357791152	-384.9570654563828	1069.159340478842	848.5119256946574	-137.9321518001827	1124.55651562814	677.9439627637055	-230.9404220134724	991.2773703752698	639.5109623658012	-171.8157751525498	924.8803796820213	515.5738006829532	-196.9840456781377	nan	nan	nan	929.2317088652601	419.4798877336321	-245.4957424024882	819.9314942127261	374.4563800507119	-191.3565358577031	799.1755500016056	256.9789663705153	-240.9248275317231	701.0157099671752	219.6022172353366	-219.7219973330935	nan	nan	nan	738.160791893752	81.58078651443054	-219.8019672792203	695.5246873869081	95.98901181003733	-194.9452426294278	654.6623344570871	255.5658381220389	-273.7062689169626	
1877	147.5	1065.772908971623	1393.579805997277	-290.8067001863087	1004.197341722525	1164.362402830197	-266.6893358122215	1187.358567093792	1313.068130659756	-348.2715760953605	1184.763188698877	1355.463972831656	-201.9747368416252	1074.970663412304	1374.065944906752	-439.2882483084202	1155.899194044284	947.9983105741697	-431.7231170089969	1174.797376720927	925.671473462983	-218.4277946097422	987.2738054190601	995.2444007988626	-331.7843653165019	995.5199049531195	992.3952531976616	-286.3551672515748	1084.124683333259	1034.998115038205	-462.0440701536051	1138.092265518659	1005.082459188819	-186.5419067988069	1092.816707921404	880.9429331031	-500.094102461173	1218.588862697932	739.4552355697183	-421.5292416612806	1151.292369351107	632.2975181845862	-469.9916572661119	1194.254709181366	498.6415341938077	-448.8952363491109	nan	nan	nan	1265.738035368956	431.3134706845499	-392.7422430573758	1219.683006554633	314.3449170077945	-462.5650055449567	1299.704952621622	247.2341058513341	-394.4216554278235	1286.57412440214	127.6539912781957	-428.7480240895079	nan	nan	nan	1419.932887543271	145.5418569375714	-409.0554478789787	1405.600566470223	96.7248795152064	-442.7588916925528	1233.392021256623	76.31738211561429	-383.2185464907142	1070.091629240794	849.3247865644065	-138.0663874758246	1125.709385680962	678.1700909898411	-230.728165155432	992.5032830919081	639.7394161459251	-171.9703687188333	926.7759656102751	515.1828590096919	-197.181609098232	nan	nan	nan	929.5027755283845	418.978681615965	-245.7952859053598	819.7835996632797	375.7696283471558	-190.8803516375062	796.4203483703267	258.900619059682	-240.4152336889633	697.7118568456809	223.6618581850304	-218.5688722209856	nan	nan	nan	731.2396716318237	84.68669759873978	-218.7187720475152	689.0042772024336	100.2178704646522	-193.8384221725958	652.4146027403368	260.9421593962147	-272.5098160388848	
1878	147.504	1065.796580055063	1393.379300822675	-291.3898097260307	1004.127058592477	1164.273198603777	-267.2763174886631	1187.071217664017	1313.002370090021	-348.9745785628239	1184.758620888899	1355.32358134577	-202.7969815043684	1075.012997434909	1373.635937660225	-439.9455796131656	1156.250039185363	947.9644478504191	-432.0627367836996	1175.192681052861	926.2216453178166	-219.3861676245201	987.6533569326034	995.7362814413812	-332.4104789924493	996.0036898684475	992.9167215719531	-286.966410977053	1084.452363380351	1035.003632557941	-462.9778592637849	1138.508424328178	1005.605945772974	-187.4465747731321	1093.643619298434	880.4156374694461	-500.5106346501152	1218.139917763471	737.1148599384884	-421.8474913956651	1151.22371131455	630.954411756859	-470.6747457758509	1194.163475193088	497.7436413336421	-448.984001608519	nan	nan	nan	1265.936362673252	431.3506455186149	-392.6171684952805	1220.768960394887	313.7310132962047	-461.8268478307376	1301.724142555334	247.7210754751543	-393.7596482058544	1289.663287165886	127.9250873309819	-427.4960975991518	nan	nan	nan	1422.859500209865	147.5244436359817	-408.7507100397194	1408.90822131881	98.41109090194259	-442.1226733510503	1237.464195064327	75.71641844125742	-381.4012205447879	1071.022103175278	849.9795223262826	-138.2211039068721	1127.035369767969	678.3260469538138	-230.62544173319	994.0458875619017	639.6073813664436	-172.161512983568	929.0518392092639	514.4462941994805	-197.3912146861262	nan	nan	nan	930.0706931441586	418.151503979819	-246.0535566765466	819.8754739590745	376.9218457549212	-190.440852085975	793.8161588357705	260.7430301876326	-239.933908951241	694.5366519287018	227.7720695185603	-217.5136821968302	nan	nan	nan	724.5151867880369	87.99608768871474	-217.5624985636887	682.6917122982974	104.6446957827307	-192.684649113512	650.3050657471947	266.24388700471	-271.4794423518886	
1879	147.508	1065.811074511283	1393.022948951469	-292.0412934008488	1003.988561499174	1164.019672646024	-267.9548758644731	1186.828732579666	1312.720249529626	-349.6497152846662	1184.701571398688	1354.99853941928	-203.5586115969165	1075.10058840315	1373.023909053729	-440.6782463620248	1156.519567195254	947.7183060658824	-432.4559293538887	1175.529906787742	926.6333768021964	-220.2976902047437	987.9285926566624	995.9717362295864	-333.077581511857	996.3756796482587	993.1996160806956	-287.6119249299915	1084.729890385979	1034.802844386806	-463.9194097566117	1138.737077432236	1005.971588081774	-188.285755691781	1094.32455882442	879.5592307898149	-500.9400667778307	1217.68945074715	734.758851359629	-422.1488801549186	1151.259792302745	629.4502890588062	-471.21604619185	1194.19027644545	496.7982710011108	-448.9916662741681	nan	nan	nan	1266.121059949612	431.1998882509891	-392.4573361016355	1221.509740838065	313.0421304173094	-461.0382748187397	1303.216895688171	247.9353882633367	-393.0662319886164	1291.852188783294	128.0168173350559	-426.2438689070925	nan	nan	nan	1424.926186119683	148.9399844649965	-408.5608023110337	1411.175920068773	99.6140990069909	-441.6282007599445	1240.544760174211	75.09743595788356	-379.5260111414005	1071.950485669994	850.4660268645122	-138.4018209178543	1128.526047559258	678.4071835203022	-230.6435003728304	995.8959619360434	639.1102747614452	-172.3843198014327	931.6747120527939	513.3879666105873	-197.6017520552799	nan	nan	nan	930.9193586681462	417.0186241246461	-246.2440697333739	820.1883044389322	377.9368793542153	-190.0327361109705	791.3742439760563	262.518652009343	-239.4632182650325	691.5088972998266	231.9308892053163	-216.5544899820248	nan	nan	nan	718.0142144407405	91.49752129901873	-216.3297525144037	676.6110794419637	109.2562020049552	-191.4862753439861	648.3506669587011	271.4679476382088	-270.6164810276003	
